<svg xmlns="http://www.w3.org/2000/svg" xmlns:xlink="http://www.w3.org/1999/xlink" width="500" zoomAndPan="magnify" viewBox="0 0 375 374.999991" height="500" preserveAspectRatio="xMidYMid meet" version="1.0"><defs><g/></defs><g fill="#1db2f3" fill-opacity="1"><g transform="translate(127.66232, 217.874986)"><g><path d="M 18.296875 0.78125 C 13.410156 0.78125 9.691406 -1.097656 7.140625 -4.859375 C 4.585938 -8.617188 3.3125 -13.914062 3.3125 -20.75 C 3.3125 -28.164062 4.5625 -33.726562 7.0625 -37.4375 C 9.5625 -41.144531 13.070312 -43 17.59375 -43 C 21.90625 -43 25.21875 -41.285156 27.53125 -37.859375 C 29.84375 -34.441406 31 -29.660156 31 -23.515625 L 31 -22.09375 L 10.09375 -22.09375 C 10.09375 -14.144531 10.90625 -8.5 12.53125 -5.15625 C 14.164062 -1.820312 16.5625 -0.15625 19.71875 -0.15625 C 22.03125 -0.15625 23.867188 -0.914062 25.234375 -2.4375 C 26.609375 -3.96875 27.503906 -6.390625 27.921875 -9.703125 C 29.191406 -9.390625 29.828125 -8.578125 29.828125 -7.265625 C 29.828125 -6.097656 29.414062 -4.894531 28.59375 -3.65625 C 27.78125 -2.425781 26.519531 -1.378906 24.8125 -0.515625 C 23.101562 0.347656 20.929688 0.78125 18.296875 0.78125 Z M 10.09375 -22.875 L 24.296875 -22.875 C 24.242188 -29.71875 23.726562 -34.648438 22.75 -37.671875 C 21.78125 -40.691406 20.0625 -42.203125 17.59375 -42.203125 C 15.125 -42.203125 13.28125 -40.703125 12.0625 -37.703125 C 10.851562 -34.710938 10.195312 -29.769531 10.09375 -22.875 Z M 10.09375 -22.875 "/></g></g></g><g fill="#1db2f3" fill-opacity="1"><g transform="translate(154.243673, 217.874986)"><g><path d="M 17.59375 0.78125 C 14.800781 0.78125 12.328125 0.113281 10.171875 -1.21875 C 8.015625 -2.5625 6.332031 -4.820312 5.125 -8 C 3.914062 -11.1875 3.3125 -15.566406 3.3125 -21.140625 C 3.3125 -26.710938 3.914062 -31.085938 5.125 -34.265625 C 6.332031 -37.453125 8.015625 -39.703125 10.171875 -41.015625 C 12.328125 -42.335938 14.851562 -43 17.75 -43 C 21.59375 -43 24.40625 -42.171875 26.1875 -40.515625 C 27.976562 -38.859375 28.875 -36.976562 28.875 -34.875 C 28.875 -33.5 28.453125 -32.378906 27.609375 -31.515625 C 26.765625 -30.648438 25.210938 -30.21875 22.953125 -30.21875 C 22.953125 -34.738281 22.570312 -37.863281 21.8125 -39.59375 C 21.050781 -41.332031 19.671875 -42.203125 17.671875 -42.203125 C 16.035156 -42.203125 14.664062 -41.609375 13.5625 -40.421875 C 12.457031 -39.242188 11.613281 -37.128906 11.03125 -34.078125 C 10.457031 -31.023438 10.171875 -26.738281 10.171875 -21.21875 C 10.171875 -15.957031 10.484375 -11.789062 11.109375 -8.71875 C 11.742188 -5.644531 12.707031 -3.4375 14 -2.09375 C 15.289062 -0.75 16.9375 -0.078125 18.9375 -0.078125 C 23.507812 -0.078125 26.191406 -3.441406 26.984375 -10.171875 C 27.710938 -9.960938 28.222656 -9.609375 28.515625 -9.109375 C 28.804688 -8.609375 28.953125 -7.992188 28.953125 -7.265625 C 28.953125 -6.148438 28.597656 -4.972656 27.890625 -3.734375 C 27.179688 -2.503906 25.984375 -1.441406 24.296875 -0.546875 C 22.617188 0.335938 20.382812 0.78125 17.59375 0.78125 Z M 17.59375 0.78125 "/></g></g></g><g fill="#e6e6dd" fill-opacity="1"><g transform="translate(178.06466, 217.874986)"><g><path d="M 1.1875 0 L 1.1875 -0.78125 L 1.65625 -0.78125 C 3.070312 -0.78125 4.132812 -0.910156 4.84375 -1.171875 C 5.5625 -1.441406 6.035156 -2 6.265625 -2.84375 C 6.503906 -3.6875 6.625 -4.921875 6.625 -6.546875 L 6.625 -53.5625 C 6.625 -55.875 6.332031 -57.382812 5.75 -58.09375 C 5.175781 -58.8125 3.992188 -59.171875 2.203125 -59.171875 L 1.109375 -59.171875 L 1.109375 -59.953125 L 13.484375 -59.953125 L 13.484375 -40.703125 C 13.484375 -39.972656 13.46875 -39.25 13.4375 -38.53125 C 13.414062 -37.820312 13.378906 -36.679688 13.328125 -35.109375 L 13.484375 -35.109375 C 14.066406 -37.578125 15.1875 -39.507812 16.84375 -40.90625 C 18.5 -42.300781 20.640625 -43 23.265625 -43 C 26.523438 -43 29.050781 -41.8125 30.84375 -39.4375 C 32.632812 -37.070312 33.53125 -33.421875 33.53125 -28.484375 L 33.53125 -6.46875 C 33.53125 -4.101562 33.789062 -2.5625 34.3125 -1.84375 C 34.84375 -1.132812 36.054688 -0.78125 37.953125 -0.78125 L 38.421875 -0.78125 L 38.421875 0 L 26.75 0 L 26.75 -29.1875 C 26.75 -33.34375 26.3125 -36.367188 25.4375 -38.265625 C 24.570312 -40.160156 22.984375 -41.109375 20.671875 -41.109375 C 18.359375 -41.109375 16.566406 -39.945312 15.296875 -37.625 C 14.035156 -35.3125 13.40625 -31.738281 13.40625 -26.90625 L 13.40625 -6.390625 C 13.40625 -3.972656 13.691406 -2.429688 14.265625 -1.765625 C 14.847656 -1.109375 16.140625 -0.78125 18.140625 -0.78125 L 18.546875 -0.78125 L 18.546875 0 Z M 1.1875 0 "/></g></g></g><g fill="#e6e6dd" fill-opacity="1"><g transform="translate(210.798563, 217.874986)"><g><path d="M 18.21875 0.78125 C 13.539062 0.78125 9.882812 -1.003906 7.25 -4.578125 C 4.625 -8.148438 3.3125 -13.671875 3.3125 -21.140625 C 3.3125 -35.710938 8.332031 -43 18.375 -43 C 23.21875 -43 26.898438 -41.179688 29.421875 -37.546875 C 31.953125 -33.921875 33.21875 -28.453125 33.21875 -21.140625 C 33.21875 -13.617188 31.953125 -8.082031 29.421875 -4.53125 C 26.898438 -0.988281 23.164062 0.78125 18.21875 0.78125 Z M 18.296875 0 C 21.296875 0 23.382812 -1.601562 24.5625 -4.8125 C 25.75 -8.019531 26.34375 -13.460938 26.34375 -21.140625 C 26.34375 -26.296875 26.09375 -30.425781 25.59375 -33.53125 C 25.09375 -36.632812 24.25 -38.851562 23.0625 -40.1875 C 21.882812 -41.53125 20.269531 -42.203125 18.21875 -42.203125 C 16.28125 -42.203125 14.71875 -41.53125 13.53125 -40.1875 C 12.34375 -38.851562 11.5 -36.632812 11 -33.53125 C 10.5 -30.425781 10.25 -26.296875 10.25 -21.140625 C 10.25 -13.460938 10.878906 -8.019531 12.140625 -4.8125 C 13.410156 -1.601562 15.460938 0 18.296875 0 Z M 18.296875 0 "/></g></g></g></svg>